<svg width="27" height="27" viewBox="0 0 27 27" fill="none" xmlns="http://www.w3.org/2000/svg">
<rect width="27" height="27" rx="13.5" fill="#FF4343"/>
<path d="M12.4588 4.72501C11.2884 4.72501 10.3309 5.68254 10.3309 6.85286H8.20305C7.03273 6.85286 6.0752 7.8104 6.0752 8.98072H20.9702C20.9702 7.8104 20.0127 6.85286 18.8423 6.85286H16.7145C16.7145 5.68254 15.7569 4.72501 14.5866 4.72501H12.4588ZM8.20305 11.1086V21.3436C8.20305 21.5776 8.37328 21.7479 8.60735 21.7479H18.4593C18.6934 21.7479 18.8636 21.5776 18.8636 21.3436V11.1086H16.7358V18.5561C16.7358 19.1519 16.2676 19.62 15.6718 19.62C15.076 19.62 14.6079 19.1519 14.6079 18.5561V11.1086H12.48V18.5561C12.48 19.1519 12.0119 19.62 11.4161 19.62C10.8203 19.62 10.3522 19.1519 10.3522 18.5561V11.1086H8.22433H8.20305Z" fill="white"/>
</svg>
