<svg width="31" height="31" viewBox="0 0 31 31" fill="none" xmlns="http://www.w3.org/2000/svg">
<path d="M17.9219 0H29.5469C30.3494 0 31 0.743516 31 1.66071V12.7321C31 13.6493 30.3494 14.3929 29.5469 14.3929H17.9219C17.1193 14.3929 16.4688 13.6493 16.4688 12.7321V1.66071C16.4688 0.743516 17.1193 0 17.9219 0ZM13.0781 0H1.45312C0.650576 0 0 0.743516 0 1.66071V12.7321C0 13.6493 0.650576 14.3929 1.45312 14.3929H13.0781C13.8807 14.3929 14.5312 13.6493 14.5312 12.7321V1.66071C14.5312 0.743516 13.8807 0 13.0781 0ZM0 18.2679V29.3393C0 30.2565 0.650576 31 1.45312 31H13.0781C13.8807 31 14.5312 30.2565 14.5312 29.3393V18.2679C14.5312 17.3507 13.8807 16.6071 13.0781 16.6071H1.45312C0.650576 16.6071 0 17.3507 0 18.2679ZM17.9219 31H29.5469C30.3494 31 31 30.2565 31 29.3393V18.2679C31 17.3507 30.3494 16.6071 29.5469 16.6071H17.9219C17.1193 16.6071 16.4688 17.3507 16.4688 18.2679V29.3393C16.4688 30.2565 17.1193 31 17.9219 31Z" fill="white"/>
</svg>
