<svg width="31" height="31" viewBox="0 0 31 31" fill="none" xmlns="http://www.w3.org/2000/svg">
<path d="M27.9242 6.64286H4.84375C4.30852 6.64286 3.875 6.14741 3.875 5.53571C3.875 4.92402 4.30852 4.42857 4.84375 4.42857H28.0938C28.629 4.42857 29.0625 3.93312 29.0625 3.32143C29.0625 1.48703 27.7613 0 26.1562 0H3.875C1.73467 0 0 1.98248 0 4.42857V26.5714C0 29.0175 1.73467 31 3.875 31H27.9242C29.6207 31 31 29.5102 31 27.6786V9.96428C31 8.13266 29.6207 6.64286 27.9242 6.64286ZM25.1875 21.0357C24.1176 21.0357 23.25 20.0441 23.25 18.8214C23.25 17.5987 24.1176 16.6071 25.1875 16.6071C26.2574 16.6071 27.125 17.5987 27.125 18.8214C27.125 20.0441 26.2574 21.0357 25.1875 21.0357Z" fill="white"/>
</svg>
