<svg width="31" height="31" viewBox="0 0 31 31" fill="none" xmlns="http://www.w3.org/2000/svg">
<path d="M0.751531 8.96247L14.8552 15.3604C15.2669 15.5475 15.7325 15.5475 16.1442 15.3604L30.2479 8.96247C31.2499 8.50777 31.2499 6.99351 30.2479 6.53881L16.1448 0.140313C15.9425 0.0478539 15.7227 0 15.5003 0C15.2779 0 15.0581 0.0478539 14.8558 0.140313L0.751531 6.53821C-0.25051 6.99291 -0.25051 8.50777 0.751531 8.96247ZM30.2485 14.3075L26.7313 12.7133L16.9446 17.1495C16.4869 17.3572 16.0007 17.4625 15.5 17.4625C14.9993 17.4625 14.5137 17.3572 14.0554 17.1495L4.26927 12.7133L0.751531 14.3075C-0.25051 14.7616 -0.25051 16.2752 0.751531 16.7293L14.8552 23.1224C15.2669 23.3088 15.7325 23.3088 16.1442 23.1224L30.2485 16.7293C31.2505 16.2752 31.2505 14.7616 30.2485 14.3075ZM30.2485 22.0452L26.7447 20.4571L16.9446 24.8994C16.4869 25.1071 16.0007 25.2124 15.5 25.2124C14.9993 25.2124 14.5137 25.1071 14.0554 24.8994L4.25595 20.4571L0.751531 22.0452C-0.25051 22.4993 -0.25051 24.013 0.751531 24.4671L14.8552 30.8601C15.2669 31.0466 15.7325 31.0466 16.1442 30.8601L30.2485 24.4671C31.2505 24.013 31.2505 22.4993 30.2485 22.0452Z" fill="white"/>
</svg>
