<svg width="32" height="29" viewBox="0 0 32 29" fill="none" xmlns="http://www.w3.org/2000/svg">
<path d="M7.71846 10.0736L7.71846 8.51409C7.71846 7.85376 8.25235 7.31987 8.90917 7.32339L22.5619 7.31987C23.2223 7.31987 23.7561 7.85376 23.7526 8.51058L23.7526 22.1598C23.7526 22.8202 23.2187 23.3541 22.5619 23.3505L21.0024 23.3505C20.3351 23.3505 19.7977 22.7991 19.8117 22.1317L20.0119 13.874L9.91723 23.9687C9.45008 24.4359 8.69842 24.4359 8.23127 23.9687L7.1073 22.8448C6.64015 22.3776 6.64015 21.6259 7.1073 21.1588L17.202 11.0641L8.93727 11.2643C8.2664 11.2819 7.71495 10.7445 7.71846 10.0736Z" fill="#E1D9EA"/>
</svg>
