<svg width="19" height="20" viewBox="0 0 19 20" fill="none" xmlns="http://www.w3.org/2000/svg">
<path d="M8.30438 0.424988C6.96068 0.424988 5.86129 1.52438 5.86129 2.86808H3.41819C2.07449 2.86808 0.975098 3.96748 0.975098 5.31118H18.0768C18.0768 3.96748 16.9774 2.86808 15.6337 2.86808H13.1906C13.1906 1.52438 12.0912 0.424988 10.7475 0.424988H8.30438ZM3.41819 7.75427V19.5056C3.41819 19.7743 3.61364 19.9697 3.88238 19.9697H15.1939C15.4627 19.9697 15.6581 19.7743 15.6581 19.5056V7.75427H13.215V16.3051C13.215 16.9892 12.6775 17.5267 11.9935 17.5267C11.3094 17.5267 10.7719 16.9892 10.7719 16.3051V7.75427H8.32881V16.3051C8.32881 16.9892 7.79133 17.5267 7.10727 17.5267C6.4232 17.5267 5.88572 16.9892 5.88572 16.3051V7.75427H3.44262H3.41819Z" fill="white"/>
</svg>
